<svg width="40" height="40" viewBox="0 0 40 40" fill="none" xmlns="http://www.w3.org/2000/svg">
<path d="M7.00001 14.8436C7 14.8481 7 14.8526 7 14.8571V27.7143C7 32.3302 10.1199 36.236 14.3456 37.5379C15.3203 37.8382 16.3538 38 17.4215 38H22.5785C23.6462 38 24.6797 37.8382 25.6544 37.5379C29.8801 36.236 33 32.3302 33 27.7143V14.8571C33 14.6921 32.9965 14.5277 32.9895 14.3641C32.8849 11.9104 32.0083 9.63274 30.7242 7.71815L32.7363 3.83235C32.9854 3.3512 32.8939 2.7646 32.5099 2.3817C32.1259 1.99879 31.5377 1.90751 31.0552 2.15596L27.1587 4.16248C25.2771 2.90741 23.0457 2.13307 20.6412 2.01563C20.4901 2.00824 20.3383 2.00346 20.1859 2.00131C20.1241 2.00044 20.0621 2 20 2C19.6688 2 19.3406 2.01245 19.0157 2.03691C16.8038 2.20344 14.7477 2.92653 12.9879 4.06611C12.9388 4.09791 12.8899 4.13004 12.8413 4.16248L8.94475 2.15596C8.46227 1.90751 7.87406 1.99879 7.49009 2.3817C7.10612 2.7646 7.01459 3.3512 7.26373 3.83235L9.27579 7.71814C7.90834 9.75688 7.0031 12.2073 7.00001 14.8436Z" fill="#4682FA"/>
<path d="M18.7107 11.6428C18.7107 14.1281 16.6904 16.1428 14.1983 16.1428C11.7061 16.1428 9.68585 14.1281 9.68585 11.6428C9.68585 9.15754 11.7061 7.14282 14.1983 7.14282C16.6904 7.14282 18.7107 9.15754 18.7107 11.6428Z" fill="white"/>
<path d="M30.3141 11.6428C30.3141 14.1281 28.2938 16.1428 25.8017 16.1428C23.3095 16.1428 21.2893 14.1281 21.2893 11.6428C21.2893 9.15754 23.3095 7.14282 25.8017 7.14282C28.2938 7.14282 30.3141 9.15754 30.3141 11.6428Z" fill="white"/>
<path d="M22.5785 18.7143H17.4215V21.2857C17.4215 21.9958 17.9987 22.5714 18.7107 22.5714H21.2893C22.0013 22.5714 22.5785 21.9958 22.5785 21.2857V18.7143Z" fill="white"/>
<path d="M17.3273 17.6361C16.9798 17.9439 16.7768 18.3149 16.7768 18.7143C16.7768 19.076 16.9432 19.4144 17.2327 19.7037C17.7424 20.213 18.6338 20.57 19.6705 20.633C19.7788 20.6395 19.8887 20.6429 20 20.6429C21.7801 20.6429 23.2232 19.7795 23.2232 18.7143C23.2232 17.9155 22.4114 17.2301 21.2546 16.9373C20.869 16.8397 20.445 16.7858 20 16.7858C19.7177 16.7858 19.4439 16.8075 19.183 16.8483C18.4155 16.9682 17.7596 17.2532 17.3273 17.6361Z" fill="#CCA18A"/>
<path d="M11.5272 36.1561C10.5261 35.4597 9.6547 34.5907 8.95635 33.5923L7.63977 34.9053C6.92986 35.6132 6.92986 36.7611 7.63977 37.469C8.3497 38.177 9.5007 38.177 10.2106 37.469L11.5272 36.1561Z" fill="#CCA18A"/>
<path d="M7.10329 25.139L9.68183 22.5676L7.11097 20.0038L4.53244 22.5752C3.82252 23.2832 3.82252 24.4311 4.53244 25.139C5.24236 25.847 6.39337 25.847 7.10329 25.139Z" fill="#CCA18A"/>
<path d="M28.4728 36.1561C29.4739 35.4597 30.3453 34.5907 31.0436 33.5923L32.3602 34.9053C33.0701 35.6132 33.0701 36.7611 32.3602 37.469C31.6503 38.177 30.4993 38.177 29.7894 37.469L28.4728 36.1561Z" fill="#CCA18A"/>
<path d="M32.8967 25.139L30.3182 22.5676L32.889 20.0038L35.4676 22.5752C36.1775 23.2832 36.1775 24.4311 35.4676 25.139C34.7576 25.847 33.6066 25.847 32.8967 25.139Z" fill="#CCA18A"/>
<path d="M16.1322 11.6428C16.1322 12.7079 15.2664 13.5714 14.1983 13.5714C13.1302 13.5714 12.2644 12.7079 12.2644 11.6428C12.2644 10.5777 13.1302 9.71423 14.1983 9.71423C15.2664 9.71423 16.1322 10.5777 16.1322 11.6428Z" fill="black"/>
<path d="M27.7356 11.6428C27.7356 12.7079 26.8698 13.5714 25.8017 13.5714C24.7336 13.5714 23.8678 12.7079 23.8678 11.6428C23.8678 10.5777 24.7336 9.71423 25.8017 9.71423C26.8698 9.71423 27.7356 10.5777 27.7356 11.6428Z" fill="black"/>
<path d="M21.2893 18.7142C22.0013 18.7142 22.5962 18.1306 22.4343 17.4391C22.0823 15.9355 21.1254 14.8571 20 14.8571C18.8747 14.8571 17.9177 15.9355 17.5657 17.4391C17.4038 18.1306 17.9987 18.7142 18.7107 18.7142H21.2893Z" fill="black"/>
</svg>
