<svg width="16" height="16" viewBox="0 0 16 16" fill="none" xmlns="http://www.w3.org/2000/svg">
<path d="M6 1C4.89543 1 4 1.89543 4 3C4 4.10457 4.89543 5 6 5H6.24342C7.20905 5 8.06635 4.3821 8.37171 3.46601L8.57697 2.85021C8.74622 2.34247 9.22138 2 9.75658 2H10C10.5523 2 11 2.44772 11 3C11 3.55228 10.5523 4 10 4C9.72386 4 9.5 4.22386 9.5 4.5C9.5 4.77614 9.72386 5 10 5C11.1046 5 12 4.10457 12 3C12 1.89543 11.1046 1 10 1H9.75658C8.79095 1 7.93365 1.6179 7.62829 2.53399L7.42303 3.14979C7.25378 3.65753 6.77862 4 6.24342 4H6C5.44772 4 5 3.55228 5 3C5 2.44772 5.44772 2 6 2C6.27614 2 6.5 1.77614 6.5 1.5C6.5 1.22386 6.27614 1 6 1Z" fill="#D6AE58"/>
<path fill-rule="evenodd" clip-rule="evenodd" d="M13.0319 3.32445C13.1289 3.06589 13.4171 2.93489 13.6757 3.03185C13.9342 3.12881 14.0652 3.41702 13.9683 3.67558L11.3333 10.7023C11.0405 11.4829 10.2943 12 9.46061 12H6.53961C5.70592 12 4.95968 11.4829 4.66695 10.7023L4.4036 10H3C1.89543 10 1 9.10457 1 8C1 6.92746 1.84425 6.05211 2.90444 6.00224L2.03194 3.67558C1.93498 3.41702 2.06599 3.12881 2.32455 3.03185C2.58311 2.93489 2.87131 3.06589 2.96827 3.32445L5.60328 10.3511C5.74964 10.7414 6.12276 11 6.53961 11H9.46061C9.87745 11 10.2506 10.7414 10.3969 10.3511L13.0319 3.32445ZM3 7H3.2786L4.0286 9H3C2.44772 9 2 8.55228 2 8C2 7.44772 2.44772 7 3 7Z" fill="#D6AE58"/>
<path d="M2.5 13C2.22386 13 2 13.2239 2 13.5C2 13.7761 2.22386 14 2.5 14H13.5C13.7761 14 14 13.7761 14 13.5C14 13.2239 13.7761 13 13.5 13H2.5Z" fill="#D6AE58"/>
<path d="M3.97168 6L5.60335 10.3511C5.74971 10.7414 6.12284 11 6.53968 11H9.46068C9.87752 11 10.2506 10.7414 10.397 10.3511L12.0287 6H3.97168Z" fill="#3D3223"/>
</svg>
