<!-- Copyright 2000-2024 JetBrains s.r.o. and contributors. Use of this source code is governed by the Apache 2.0 license. -->
<svg width="16" height="16" viewBox="0 0 16 16" fill="none" xmlns="http://www.w3.org/2000/svg">
<rect x="7" y="4" width="3" height="3" rx="1" fill="#548AF7"/>
<rect x="7" width="3" height="3" rx="1" fill="#548AF7"/>
<rect x="3" y="4" width="3" height="3" rx="1" fill="#548AF7"/>
<path fill-rule="evenodd" clip-rule="evenodd" d="M15.2502 7.03904C15.2114 7.00829 14.85 6.73537 14.0877 6.73537C13.8864 6.73624 13.6856 6.75351 13.4871 6.78699C13.3397 5.77629 12.5043 5.28322 12.4661 5.26063L12.2613 5.14258L12.1267 5.33684C12.0046 5.5259 11.9063 5.72897 11.834 5.94141C11.8065 6.02221 11.7827 6.10437 11.7628 6.18763C11.6263 6.76488 11.7093 7.30705 12.0025 7.77057C11.6484 7.96789 11.0804 8.01646 10.9655 8.02076H1.96457C1.42639 8.02076 0.986026 8.44692 1.01182 8.98449C1.04487 9.67345 1.1422 10.5834 1.41263 11.196C1.90016 12.3003 2.44294 13.0098 3.34558 13.4401C4.24822 13.8704 4.80406 14.0163 6.09807 14.0163C6.68264 14.0181 7.26612 13.9652 7.84084 13.8583C8.63977 13.7116 9.40854 13.4323 10.1153 13.0321C10.6977 12.6948 11.2219 12.2658 11.6675 11.7614C12.2613 11.0893 12.6637 9.97522 12.9698 9.12794C13.0477 8.91217 13.1195 8.71333 13.1865 8.5439H13.3181C14.1338 8.5439 14.6354 8.21746 14.9121 7.94392C15.0959 7.76945 15.2394 7.55692 15.3326 7.3212L15.391 7.15031L15.2502 7.03904ZM5 12C5.55228 12 6 11.5523 6 11C6 10.4477 5.55228 10 5 10C4.44772 10 4 10.4477 4 11C4 11.5523 4.44772 12 5 12Z" fill="#548AF7"/>
</svg>
