<!-- Copyright 2000-2024 JetBrains s.r.o. and contributors. Use of this source code is governed by the Apache 2.0 license. -->
<svg width="16" height="16" viewBox="0 0 16 16" fill="none" xmlns="http://www.w3.org/2000/svg">
<path d="M5.23336 6.32655L7.89226 4.79136C7.92493 4.77242 7.96202 4.76245 7.99978 4.76245C8.03754 4.76245 8.07463 4.77242 8.1073 4.79136L10.7664 6.32655C10.8329 6.36505 10.874 6.43592 10.874 6.51292V9.58374C10.874 9.6603 10.8329 9.73161 10.7664 9.77011L8.10708 11.3031C8.07441 11.322 8.03732 11.332 7.99956 11.332C7.9618 11.332 7.92471 11.322 7.89205 11.3031L5.23336 9.77186C5.16686 9.73336 5.12573 9.66249 5.12573 9.58549V6.51314C5.12573 6.43658 5.16686 6.36505 5.23336 6.32655Z" fill="#9DA0A8"/>
<path d="M14.9134 7.72527L11.7363 2.19834C11.621 1.9984 11.4082 1.85315 11.1772 1.85315H4.82313C4.59235 1.85315 4.37907 2.00059 4.26379 2.20031L1.08666 7.71565C1.02987 7.81489 1 7.92725 1 8.04159C1 8.15593 1.02987 8.26828 1.08666 8.36752L4.26379 13.8472C4.37929 14.0471 4.59235 14.1491 4.82313 14.1491H11.1772C11.4079 14.1491 11.6212 14.05 11.7365 13.8501L14.9134 8.35943C14.9701 8.26342 15 8.15396 15 8.04246C15 7.93096 14.9701 7.82151 14.9134 7.72549M12.2827 10.3833C12.2827 10.4642 12.2337 10.5397 12.1633 10.5802L8.11641 12.9149C8.08157 12.9349 8.04209 12.9455 8.0019 12.9455C7.96171 12.9455 7.92222 12.9349 7.88738 12.9149L3.83766 10.5802C3.76723 10.5395 3.71801 10.4642 3.71801 10.3833V5.71343C3.719 5.6731 3.7305 5.63372 3.75137 5.5992C3.77224 5.56467 3.80176 5.53618 3.83701 5.51656L7.88388 3.18184C7.91869 3.16184 7.95814 3.15132 7.99829 3.15132C8.03844 3.15132 8.07788 3.16184 8.11269 3.18184L12.1629 5.51634C12.2333 5.55702 12.2832 5.63227 12.2832 5.71321L12.2827 10.3833Z" fill="white"/>
</svg>
