<!-- Copyright 2000-2024 JetBrains s.r.o. and contributors. Use of this source code is governed by the Apache 2.0 license. -->
<svg width="16" height="16" viewBox="0 0 16 16" fill="none" xmlns="http://www.w3.org/2000/svg">
<g clip-path="url(#clip0_6356_49550)">
<path d="M7 13.7409V10C7 8.99715 7.69795 8.28831 8.43307 7.8505C8.0891 7.81513 7.76891 7.89228 7.22777 8.08641C6.3621 8.39699 1.00024 9.56425 1.00024 9.56425V10.9793C1.00024 11.1206 1.19518 11.2703 1.56603 11.4474C1.94919 11.6306 3.23299 12.1629 4.47462 12.6777C5.55607 13.1262 6.60551 13.5613 7 13.7409Z" fill="#A42122"/>
<path d="M7 12.3253V10C7 8.86489 7.8942 8.10644 8.72436 7.69136C9.10813 7.49947 9.54203 7.34452 10.0098 7.23033C9.60918 7.07427 9.29348 6.95264 9.13032 6.89288C8.39368 6.62293 8.09335 6.63431 7.22779 6.94472C6.41463 7.23644 2.75176 8.6719 1.70592 9.08177C1.63828 9.10827 1.58159 9.13049 1.53732 9.14783C0.808512 9.43313 0.824055 9.67729 1.56597 10.0319C1.94901 10.2148 3.23205 10.7469 4.47328 11.2616C5.55522 11.7102 6.60538 12.1456 7 12.3253Z" fill="#D82F27"/>
<path d="M14.9996 7.56338C14.1522 7.19938 13.103 7 12 7C10.7738 7 9.61434 7.24637 8.72436 7.69136C7.8942 8.10644 7 8.86489 7 10V11.4332C6.60569 11.2537 5.5571 10.8189 4.47623 10.3707C3.2341 9.85571 1.94936 9.323 1.56603 9.1398C1.19518 8.96251 1.00024 8.81318 1.00024 8.67189V7.25655C1.00024 7.25655 6.3621 6.08935 7.22777 5.77876C8.09341 5.46826 8.39365 5.45697 9.1303 5.72684C9.49972 5.86215 10.7914 6.12939 12.0793 6.39586C13.3599 6.66081 14.6368 6.925 14.9998 7.05796L14.9996 7.56338Z" fill="#A42122"/>
<path d="M14.6416 7.42359C13.8647 7.14866 12.9524 7 12 7C10.7738 7 9.61434 7.24637 8.72436 7.69136C7.8942 8.10644 7 8.86489 7 10V10.0179C6.60552 9.83832 5.55592 9.40308 4.47437 8.95459C3.2328 8.43974 1.94912 7.90743 1.56597 7.72436C0.824055 7.36982 0.808512 7.12575 1.53732 6.84023C1.59393 6.81807 1.67085 6.78793 1.765 6.75105C2.88289 6.31309 6.42929 4.92372 7.22779 4.63734C8.09335 4.32684 8.39368 4.31555 9.13032 4.58542C9.50021 4.7209 10.6541 5.17433 11.8037 5.62606C12.9438 6.07405 14.0797 6.52037 14.4422 6.65319C15.1018 6.89489 15.1868 7.09801 14.6416 7.42359Z" fill="#D82F27"/>
<path d="M13.2678 7.09046C13.8112 6.85331 14.2474 6.65763 14.4512 6.55139C14.8315 6.3532 14.9995 6.19974 14.9994 6.05998L14.9998 4.66489C14.6368 4.53192 13.3599 4.26774 12.0793 4.00279C10.7914 3.73632 9.49972 3.46907 9.1303 3.33377C8.39365 3.0639 8.09341 3.07511 7.22777 3.3857C6.3621 3.69619 1.00024 4.86341 1.00024 4.86341V6.27867C1.00024 6.41987 1.19518 6.56932 1.56603 6.7466C1.94915 6.92967 3.23269 7.46192 4.47418 7.97673C5.63683 8.45885 6.76259 8.92567 7.0774 9.07608C7.11625 9.09465 7.15441 9.11212 7.192 9.12847C7.49945 8.46427 8.12841 7.98934 8.72436 7.69136C9.61434 7.24637 10.7738 7 12 7C12.4339 7 12.8595 7.03086 13.2678 7.09046Z" fill="#A42122"/>
<path d="M14.4512 5.13608C13.7041 5.52549 9.83386 7.11684 9.00993 7.54645C8.18593 7.97598 7.72826 7.97175 7.07736 7.6607C6.42646 7.34958 2.30788 5.68584 1.56597 5.3313C0.824055 4.97675 0.808512 4.7326 1.53732 4.44717C2.26606 4.16174 6.36205 2.55485 7.22781 2.24427C8.09336 1.93368 8.39369 1.92248 9.13033 2.19239C9.86705 2.46227 13.7142 3.99347 14.4422 4.2602C15.1703 4.52682 15.1983 4.74674 14.4512 5.13608Z" fill="#D82F27"/>
<path d="M9.83476 3.77339L8.6217 3.89927L8.35008 4.55269L7.91145 3.82357L6.51074 3.69767L7.55591 3.32075L7.24237 2.74219L8.22084 3.12486L9.14345 2.82283L8.89406 3.42113L9.83476 3.77339Z" fill="white"/>
<path d="M8.27765 6.94323L6.01367 6.00422L9.25782 5.50635L8.27765 6.94323Z" fill="white"/>
<path d="M5.13821 5.48045C6.09583 5.48045 6.87213 5.17954 6.87213 4.80834C6.87213 4.43714 6.09583 4.13623 5.13821 4.13623C4.1806 4.13623 3.4043 4.43714 3.4043 4.80834C3.4043 5.17954 4.1806 5.48045 5.13821 5.48045Z" fill="white"/>
<path d="M11.2676 3.95166L13.1876 4.71044L11.2692 5.46839L11.2676 3.95166Z" fill="#791514"/>
<path d="M9.14355 4.79189L11.2676 3.95166L11.2693 5.46839L11.061 5.54984L9.14355 4.79189Z" fill="#AD2524"/>
<path fill-rule="evenodd" clip-rule="evenodd" d="M16 14C16 15.1046 14.2091 16.0054 12 16.0054C9.79086 16.0054 8 15.1046 8 14V10C8 8.89543 9.79086 8 12 8C14.2091 8 16 8.89543 16 10V14ZM15 10C15 10.0011 14.9999 10.0026 14.9994 10.0054C14.9988 10.0084 14.9972 10.0146 14.9932 10.0243C14.9852 10.044 14.9658 10.0811 14.9222 10.1326C14.831 10.2405 14.6598 10.3805 14.3812 10.5198C13.8235 10.7987 12.983 11 12 11C11.017 11 10.1765 10.7987 9.61879 10.5198C9.3402 10.3805 9.16902 10.2405 9.07781 10.1326C9.03417 10.0811 9.01484 10.044 9.00676 10.0243C9.00277 10.0146 9.00124 10.0084 9.00064 10.0054C9.00007 10.0026 9 10.0011 9 10C9 9.99894 9.00007 9.99739 9.00064 9.99456C9.00124 9.99161 9.00277 9.98543 9.00676 9.9757C9.01484 9.95595 9.03417 9.91894 9.07781 9.86735C9.16902 9.75953 9.3402 9.61951 9.61879 9.48021C10.1765 9.20134 11.017 9 12 9C12.983 9 13.8235 9.20134 14.3812 9.48021C14.6598 9.61951 14.831 9.75953 14.9222 9.86735C14.9658 9.91894 14.9852 9.95595 14.9932 9.9757C14.9972 9.98543 14.9988 9.99161 14.9994 9.99456C14.9999 9.99739 15 9.99894 15 10ZM15 11.3229C14.2671 11.7381 13.1947 12 12 12C10.8053 12 9.73294 11.7381 9 11.3229V11.9946C8.99942 11.9974 9 12 9 12C9 12 9.00007 12.0026 9.00064 12.0055C9.00124 12.0084 9.00277 12.0146 9.00676 12.0243C9.01484 12.0441 9.03417 12.0811 9.07781 12.1327C9.16902 12.2405 9.3402 12.3805 9.61879 12.5198C10.1765 12.7987 11.017 13 12 13C12.983 13 13.8235 12.7987 14.3812 12.5198C14.6598 12.3805 14.831 12.2405 14.9222 12.1327C14.9658 12.0811 14.9852 12.0441 14.9932 12.0243C14.9972 12.0146 14.9988 12.0084 14.9994 12.0055C14.9999 12.0026 15 12 15 12C15 12 14.9999 11.9974 14.9994 11.9946L15 11.3229ZM15 13.3229C14.2671 13.7381 13.1947 14 12 14C10.8053 14 9.73294 13.7381 9 13.3229V14C8.99942 14.0028 9 14.0054 9 14.0054C9 14.0054 9.00007 14.0081 9.00064 14.0109C9.00124 14.0138 9.00277 14.02 9.00676 14.0297C9.01484 14.0495 9.03417 14.0865 9.07781 14.1381C9.16902 14.2459 9.3402 14.3859 9.61879 14.5252C10.1765 14.8041 11.017 15.0054 12 15.0054C12.983 15.0054 13.8235 14.8041 14.3812 14.5252C14.6598 14.3859 14.831 14.2459 14.9222 14.1381C14.9658 14.0865 14.9852 14.0495 14.9932 14.0297C14.9972 14.02 14.9988 14.0138 14.9994 14.0109C14.9999 14.0081 15 14.0054 15 14.0054C15 14.0054 15 14.0046 14.9999 14.0033C14.9998 14.0024 14.9996 14.0012 14.9994 14L15 13.3229Z" fill="#6C707E"/>
</g>
<defs>
<clipPath id="clip0_6356_49550">
<rect width="16" height="16" fill="white"/>
</clipPath>
</defs>
</svg>
