<!-- Copyright 2000-2024 JetBrains s.r.o. and contributors. Use of this source code is governed by the Apache 2.0 license. -->
<svg width="16" height="16" viewBox="0 0 16 16" fill="none" xmlns="http://www.w3.org/2000/svg">
<path d="M3.10373 2H4.00018L4.00024 5.59543C4.00024 6.38643 4.70885 6.94203 5.43233 6.83349L7.72923 14.5856C7.77781 14.7495 7.55818 14.854 7.46162 14.7129L1.61734 6.17124C1.54941 6.07195 1.56182 5.93836 1.64689 5.85329L2.28455 5.21563C2.3961 5.10408 2.37771 4.91835 2.24645 4.83084L1.25392 4.16916C1.12265 4.08165 1.10426 3.89592 1.21581 3.78437L2.92696 2.07322C2.97384 2.02634 3.03743 2 3.10373 2Z" fill="black"/>
<path d="M12.0002 5.59543C12.0002 6.38643 11.2916 6.94204 10.5682 6.83349L8.27125 14.5856C8.22267 14.7495 8.44231 14.854 8.53887 14.7129L14.3831 6.17124C14.4511 6.07195 14.4387 5.93836 14.3536 5.85329L13.7159 5.21563C13.6044 5.10408 13.6228 4.91835 13.754 4.83084L14.7466 4.16916C14.8778 4.08165 14.8962 3.89592 14.7847 3.78437L13.0735 2.07322C13.0266 2.02634 12.9631 2 12.8968 2H12.0003L12.0002 5.59543Z" fill="black"/>
<path d="M9.00024 8C9.00024 8.55229 8.55253 9 8.00024 9C7.44796 9 7.00024 8.55229 7.00024 8C7.00024 7.44772 7.44796 7 8.00024 7C8.55253 7 9.00024 7.44772 9.00024 8Z" fill="black"/>
<path d="M5.36205 2.18089L7.00024 2.99999H9.00024L10.6384 2.18089C10.8047 2.09778 11.0002 2.21865 11.0002 2.4045V5.59548C11.0002 5.78133 10.8047 5.9022 10.6384 5.81909L9.00024 5L7.00024 4.99999L5.36205 5.81909C5.19582 5.9022 5.00024 5.78133 5.00024 5.59548V2.4045C5.00024 2.21865 5.19582 2.09778 5.36205 2.18089Z" fill="black"/>
</svg>
